<svg width="66" height="62" viewBox="0 0 66 62" fill="none" xmlns="http://www.w3.org/2000/svg">
<path d="M60.3678 50.4155V32.3195H60.5192C60.5287 32.3195 60.537 32.3195 60.5465 32.3195C63.5583 32.3195 66 29.8492 66 26.8024C66 24.8396 64.9856 23.1157 63.4601 22.1378L36.2536 1.53983C34.3162 0.0736391 31.6563 0.0736391 29.7189 1.53983L2.18652 22.3846C0.306594 23.8081 -0.462328 26.2892 0.27931 28.5444C1.02095 30.7981 3.10566 32.3195 5.4533 32.3195H5.6046V50.4153C2.75517 50.5961 0.491868 52.9684 0.491868 55.898C0.491868 58.945 2.93365 61.4151 5.94539 61.4151H60.0271C63.0389 61.4151 65.4806 58.9448 65.4806 55.898C65.4807 52.9685 63.2188 50.5974 60.3678 50.4155ZM20.2245 50.381H16.512V32.3193H20.2245V50.381ZM34.8426 50.381H31.1314V32.3193H34.8426V50.381ZM32.9871 24.6632C29.2801 24.6632 26.2751 21.6233 26.2751 17.8744C26.2751 14.1242 29.2802 11.0856 32.9871 11.0856C36.6942 11.0856 39.6991 14.1242 39.6991 17.8744C39.6991 21.6232 36.6942 24.6632 32.9871 24.6632ZM49.461 50.381H45.7485V32.3193H49.461V50.381Z" fill="#C8C8C8"/>
</svg>
