<svg width="64" height="48" viewBox="0 0 64 48" fill="none" xmlns="http://www.w3.org/2000/svg">
<path d="M0 8.24147C0 6.13974 0.842855 4.1241 2.34315 2.63795C3.84344 1.1518 5.87827 0.316895 8 0.316895H56C58.1217 0.316895 60.1566 1.1518 61.6569 2.63795C63.1571 4.1241 64 6.13974 64 8.24147V39.9398C64 42.0415 63.1571 44.0572 61.6569 45.5433C60.1566 47.0295 58.1217 47.8644 56 47.8644H8C5.87827 47.8644 3.84344 47.0295 2.34315 45.5433C0.842855 44.0572 0 42.0415 0 39.9398V8.24147ZM10 12.2038C9.46957 12.2038 8.96086 12.4125 8.58579 12.784C8.21071 13.1556 8 13.6595 8 14.1849V18.1472C8 18.6726 8.21071 19.1765 8.58579 19.5481C8.96086 19.9196 9.46957 20.1283 10 20.1283H18C18.5304 20.1283 19.0391 19.9196 19.4142 19.5481C19.7893 19.1765 20 18.6726 20 18.1472V14.1849C20 13.6595 19.7893 13.1556 19.4142 12.784C19.0391 12.4125 18.5304 12.2038 18 12.2038H10ZM10 24.0906C9.46957 24.0906 8.96086 24.2994 8.58579 24.6709C8.21071 25.0424 8 25.5463 8 26.0718C8 26.5972 8.21071 27.1011 8.58579 27.4727C8.96086 27.8442 9.46957 28.0529 10 28.0529H30C30.5304 28.0529 31.0391 27.8442 31.4142 27.4727C31.7893 27.1011 32 26.5972 32 26.0718C32 25.5463 31.7893 25.0424 31.4142 24.6709C31.0391 24.2994 30.5304 24.0906 30 24.0906H10ZM10 32.0152C9.46957 32.0152 8.96086 32.2239 8.58579 32.5955C8.21071 32.967 8 33.4709 8 33.9964C8 34.5218 8.21071 35.0257 8.58579 35.3972C8.96086 35.7688 9.46957 35.9775 10 35.9775H14C14.5304 35.9775 15.0391 35.7688 15.4142 35.3972C15.7893 35.0257 16 34.5218 16 33.9964C16 33.4709 15.7893 32.967 15.4142 32.5955C15.0391 32.2239 14.5304 32.0152 14 32.0152H10ZM22 32.0152C21.4696 32.0152 20.9609 32.2239 20.5858 32.5955C20.2107 32.967 20 33.4709 20 33.9964C20 34.5218 20.2107 35.0257 20.5858 35.3972C20.9609 35.7688 21.4696 35.9775 22 35.9775H26C26.5304 35.9775 27.0391 35.7688 27.4142 35.3972C27.7893 35.0257 28 34.5218 28 33.9964C28 33.4709 27.7893 32.967 27.4142 32.5955C27.0391 32.2239 26.5304 32.0152 26 32.0152H22ZM34 32.0152C33.4696 32.0152 32.9609 32.2239 32.5858 32.5955C32.2107 32.967 32 33.4709 32 33.9964C32 34.5218 32.2107 35.0257 32.5858 35.3972C32.9609 35.7688 33.4696 35.9775 34 35.9775H38C38.5304 35.9775 39.0391 35.7688 39.4142 35.3972C39.7893 35.0257 40 34.5218 40 33.9964C40 33.4709 39.7893 32.967 39.4142 32.5955C39.0391 32.2239 38.5304 32.0152 38 32.0152H34ZM46 32.0152C45.4696 32.0152 44.9609 32.2239 44.5858 32.5955C44.2107 32.967 44 33.4709 44 33.9964C44 34.5218 44.2107 35.0257 44.5858 35.3972C44.9609 35.7688 45.4696 35.9775 46 35.9775H50C50.5304 35.9775 51.0391 35.7688 51.4142 35.3972C51.7893 35.0257 52 34.5218 52 33.9964C52 33.4709 51.7893 32.967 51.4142 32.5955C51.0391 32.2239 50.5304 32.0152 50 32.0152H46Z" fill="#C8C8C8"/>
</svg>
