<svg width="36" height="36" viewBox="0 0 36 36" fill="none" xmlns="http://www.w3.org/2000/svg">
<path d="M18 0L21.2297 2.80546L25.3213 1.55618L27.1307 5.43273L31.3766 5.95565L31.4528 10.233L35.119 12.4377L33.4489 16.3763L35.9014 19.8815L32.7737 22.8003L33.5885 27L29.544 28.3943L28.5801 32.5623L24.3182 32.191L21.7424 35.6067L18 33.534L14.2576 35.6067L11.6818 32.191L7.41987 32.5623L6.45599 28.3943L2.41154 27L3.22629 22.8003L0.0986061 19.8815L2.5511 16.3763L0.880984 12.4377L4.54716 10.233L4.62339 5.95565L8.86934 5.43273L10.6787 1.55618L14.7703 2.80546L18 0Z" fill="#0572AF"/>
<circle cx="18" cy="18" r="12.5" fill="#0572AF" stroke="#88D4FF"/>
<path d="M18.5105 25C16.9087 25 15.4566 24.6823 14.1542 24.047C12.8668 23.3978 11.8488 22.5069 11.1003 21.3743C10.3668 20.2279 10 18.9365 10 17.5C10 16.0635 10.3668 14.779 11.1003 13.6464C11.8488 12.5 12.8668 11.6091 14.1542 10.9738C15.4566 10.3246 16.9162 10 18.5329 10C19.8952 10 21.1228 10.221 22.2156 10.663C23.3234 11.105 24.2515 11.7403 25 12.5691L22.6647 14.558C21.6018 13.4254 20.2844 12.8591 18.7126 12.8591C17.7395 12.8591 16.8713 13.0594 16.1078 13.4599C15.3443 13.8467 14.7455 14.3923 14.3114 15.0967C13.8922 15.8011 13.6826 16.6022 13.6826 17.5C13.6826 18.3978 13.8922 19.1989 14.3114 19.9033C14.7455 20.6077 15.3443 21.1602 16.1078 21.5608C16.8713 21.9475 17.7395 22.1409 18.7126 22.1409C20.2844 22.1409 21.6018 21.5677 22.6647 20.4213L25 22.4102C24.2515 23.2528 23.3234 23.895 22.2156 24.337C21.1078 24.779 19.8728 25 18.5105 25Z" fill="white"/>
</svg>
