<svg width="62" height="54" viewBox="0 0 62 54" fill="none" xmlns="http://www.w3.org/2000/svg">
<path fill-rule="evenodd" clip-rule="evenodd" d="M48.8661 7.75685C49.4259 8.02529 49.9198 8.41408 50.3127 8.89559L62 24.9922L58.9022 43.0656C58.737 44.114 58.209 45.0706 57.4109 45.7677C56.6127 46.4647 55.5953 46.8578 54.537 46.878H51.7208C51.108 48.9087 49.8599 50.6878 48.1609 51.9522C46.4619 53.2167 44.4023 53.8994 42.2865 53.8994C40.1707 53.8994 38.1111 53.2167 36.4121 51.9522C34.7131 50.6878 33.4649 48.9087 32.8522 46.878H26.3749C25.7621 48.9087 24.514 50.6878 22.815 51.9522C21.116 53.2167 19.0564 53.8994 16.9406 53.8994C14.8248 53.8994 12.7651 53.2167 11.0661 51.9522C9.36715 50.6878 8.11901 48.9087 7.50624 46.878H3.98597C3.42097 46.8689 2.86452 46.7381 2.35433 46.4945C1.84414 46.2508 1.39214 45.9001 1.02895 45.466C0.634459 45.0321 0.341319 44.5155 0.170822 43.9537C0.00032559 43.392 -0.0432461 42.7992 0.0432726 42.2184L1.16976 36.1469C1.30142 35.4994 1.65534 34.9188 2.16992 34.506C2.68449 34.0932 3.32713 33.8744 3.98597 33.8877H15.11C16.0942 33.8686 17.0408 33.5054 17.7864 32.8609C18.532 32.2164 19.0297 31.3311 19.1935 30.3578L22.573 10.8724C22.6744 10.2717 22.6453 9.65621 22.4879 9.06784C22.3305 8.47946 22.0483 7.93206 21.6607 7.46297C21.2731 6.99388 20.7892 6.61415 20.2419 6.34967C19.6946 6.08519 19.0969 5.94219 18.4895 5.93042H8.2103C7.80207 5.93505 7.39773 5.85064 7.02527 5.68301C6.65282 5.51539 6.32116 5.26857 6.05327 4.95966C5.78539 4.65074 5.58769 4.28712 5.47386 3.89398C5.36004 3.50084 5.33282 3.08759 5.39408 2.68285C5.52651 1.99781 5.89564 1.38154 6.43651 0.942489C6.97738 0.503436 7.65534 0.269725 8.35111 0.282478H41.8641C43.041 0.329037 44.153 0.835881 44.9619 1.69446C45.3089 2.15343 45.5621 2.67654 45.7071 3.23382C45.8521 3.7911 45.8859 4.37159 45.8068 4.94203L45.3843 7.3424H47.0741C47.6945 7.3469 48.3064 7.48841 48.8661 7.75685ZM13.9535 47.0493C14.7457 47.8437 15.8202 48.29 16.9406 48.29C18.0609 48.29 19.1354 47.8437 19.9276 47.0493C20.7198 46.2549 21.1649 45.1775 21.1649 44.054C21.1649 42.9306 20.7198 41.8531 19.9276 41.0588C19.1354 40.2644 18.0609 39.8181 16.9406 39.8181C15.8202 39.8181 14.7457 40.2644 13.9535 41.0588C13.1613 41.8531 12.7162 42.9306 12.7162 44.054C12.7162 45.1775 13.1613 46.2549 13.9535 47.0493ZM39.2994 47.0493C40.0917 47.8437 41.1661 48.29 42.2865 48.29C43.4069 48.29 44.4813 47.8437 45.2735 47.0493C46.0658 46.2549 46.5108 45.1775 46.5108 44.054C46.5108 42.9306 46.0658 41.8531 45.2735 41.0588C44.4813 40.2644 43.4069 39.8181 42.2865 39.8181C41.1661 39.8181 40.0917 40.2644 39.2994 41.0588C38.5072 41.8531 38.0622 42.9306 38.0622 44.054C38.0622 45.1775 38.5072 46.2549 39.2994 47.0493ZM44.3987 12.9903L42.4273 24.2862H54.537L46.2292 12.9903H44.3987Z" fill="#C8C8C8"/>
<path d="M16.9405 14.4023H2.85945C2.11254 14.4023 1.39623 14.1048 0.868083 13.5752C0.339941 13.0456 0.0432333 12.3273 0.0432333 11.5784C0.0432333 10.8294 0.339941 10.1111 0.868083 9.58151C1.39623 9.05191 2.11254 8.75439 2.85945 8.75439H16.9405C17.6874 8.75439 18.4037 9.05191 18.9319 9.58151C19.46 10.1111 19.7567 10.8294 19.7567 11.5784C19.7567 12.3273 19.46 13.0456 18.9319 13.5752C18.4037 14.1048 17.6874 14.4023 16.9405 14.4023Z" fill="#C8C8C8"/>
<path d="M18.3487 20.0503C18.3487 19.3013 18.0519 18.583 17.5238 18.0534C16.9957 17.5238 16.2793 17.2263 15.5324 17.2263H4.26758C3.52068 17.2263 2.80436 17.5238 2.27622 18.0534C1.74808 18.583 1.45137 19.3013 1.45137 20.0503C1.45137 20.7992 1.74808 21.5175 2.27622 22.0471C2.80436 22.5767 3.52068 22.8742 4.26758 22.8742H15.5324C16.2793 22.8742 16.9957 22.5767 17.5238 22.0471C18.0519 21.5175 18.3487 20.7992 18.3487 20.0503Z" fill="#C8C8C8"/>
<path d="M3.68435 26.5253C4.2125 25.9957 4.92881 25.6982 5.67572 25.6982H14.1244C14.8713 25.6982 15.5876 25.9957 16.1157 26.5253C16.6439 27.0549 16.9406 27.7732 16.9406 28.5222C16.9406 29.2712 16.6439 29.9894 16.1157 30.519C15.5876 31.0486 14.8713 31.3462 14.1244 31.3462H5.67572C4.92881 31.3462 4.2125 31.0486 3.68435 30.519C3.15621 29.9894 2.8595 29.2712 2.8595 28.5222C2.8595 27.7732 3.15621 27.0549 3.68435 26.5253Z" fill="#C8C8C8"/>
</svg>
