<svg width="61" height="38" viewBox="0 0 61 38" fill="none" xmlns="http://www.w3.org/2000/svg">
<path d="M19.0692 38C8.55291 38 0 29.4721 0 19.0134C0 8.52788 8.55291 0 19.0692 0C23.0767 0 28.5635 1.66267 31.28 4.8271C33.6468 7.58927 35.5295 13.7304 32.0869 18.1553C28.6173 22.6337 22.1354 23.4114 17.6168 19.8447C15.8686 18.4502 14.6045 16.5999 14.0128 14.4545L15.1962 14.1059C15.7341 16.0099 16.8369 17.6457 18.3699 18.8793C22.3236 22.0169 28.0525 21.3465 31.0917 17.4044C34.0772 13.5159 32.4096 8.0988 30.3117 5.65843C27.8911 2.78899 22.7002 1.26041 19.0692 1.26041C9.22531 1.26041 1.23721 9.22512 1.23721 19.0134C1.23721 28.8017 9.22531 36.7664 19.0692 36.7664V38Z" fill="white"/>
<path d="M6.99303 17.7798C6.13236 17.7798 5.45996 17.0826 5.45996 16.2244C5.45996 15.3663 6.15926 14.669 6.99303 14.669C7.8537 14.669 8.5261 15.3663 8.5261 16.2244C8.5261 17.0826 7.8268 17.7798 6.99303 17.7798ZM6.99303 15.2858C6.48201 15.2858 6.07857 15.7149 6.07857 16.2244C6.07857 16.734 6.48201 17.163 6.99303 17.163C7.50405 17.163 7.90749 16.734 7.90749 16.2244C7.90749 15.6881 7.50405 15.2858 6.99303 15.2858Z" fill="white"/>
<path d="M27.0573 22.6606L21.1133 37.8123H22.3236L27.4876 24.5914L32.6247 37.8123H33.862L27.918 22.6606H27.0573Z" fill="white"/>
<path d="M41.7428 22.6606C39.7256 22.6606 37.8429 23.4651 36.4443 24.9132C35.0188 26.415 34.2119 28.3458 34.2119 30.3303C34.2119 32.3148 34.9919 34.2456 36.4443 35.7474C37.8429 37.1955 39.7256 38 41.7428 38C43.7869 38 45.6696 37.1955 47.0682 35.7474C48.4937 34.2724 49.2737 32.3416 49.2737 30.3303C49.2737 28.319 48.4937 26.415 47.0682 24.9132C45.6696 23.4651 43.7869 22.6606 41.7428 22.6606ZM41.7428 36.8737C40.0483 36.8737 38.4346 36.1764 37.1974 34.9428C35.987 33.6824 35.3146 32.0466 35.3146 30.3303C35.3146 28.614 35.987 26.9781 37.1974 25.7177C38.4346 24.4573 40.0483 23.7869 41.7428 23.7869C43.4372 23.7869 45.1048 24.4841 46.2882 25.7177C47.4985 26.9513 48.1709 28.614 48.1709 30.3303C48.1709 32.0466 47.4985 33.7092 46.2882 34.9428C45.1048 36.1764 43.4372 36.8737 41.7428 36.8737Z" fill="white"/>
<path d="M59.8706 22.8751V29.6867H51.9094V22.8751H50.8066V37.8123H51.9094V30.7862H59.8706V37.8123H61.0002V22.8751H59.8706Z" fill="white"/>
</svg>
