<svg width="63" height="36" viewBox="0 0 63 36" fill="none" xmlns="http://www.w3.org/2000/svg">
<path d="M18.4668 35.9879C28.3999 35.9879 36.4567 27.9229 36.4567 17.9898C36.4567 8.05674 28.4 0 18.4668 0C8.52549 0 0.46875 8.05674 0.46875 17.9898C0.46875 27.9229 8.52549 35.9879 18.4668 35.9879Z" fill="#E2001A"/>
<path d="M44.6461 35.9879C54.5792 35.9879 62.6359 27.9229 62.6359 17.9898C62.6359 8.05674 54.5793 0 44.6461 0C34.7046 0 26.6562 8.05674 26.6562 17.9898C26.6562 27.9229 34.7046 35.9879 44.6461 35.9879Z" fill="#F6A800"/>
<path d="M31.5446 30.3341C28.5161 27.1082 26.6562 22.7629 26.6562 17.9898C26.6562 13.266 28.4832 8.96197 31.4541 5.75244L31.8326 5.94995C34.7048 9.14302 36.4578 13.3648 36.4578 17.9898C36.4578 22.6395 34.6884 26.8695 31.7998 30.0708L31.5446 30.3341Z" fill="#EB690A"/>
<path d="M56.8984 33.0253C56.8984 31.8567 57.8531 30.9926 58.9723 30.9926C60.075 30.9926 61.0297 31.8568 61.0297 33.0253C61.0297 34.2021 60.075 35.058 58.9723 35.058C57.8531 35.058 56.8984 34.2021 56.8984 33.0253Z" fill="black"/>
<path d="M58.5376 34.2021H58.1836V31.8566H59.0807C59.6321 31.8566 59.9037 32.0541 59.9037 32.5232C59.9037 32.9429 59.6402 33.124 59.3028 33.165L59.9694 34.2019H59.5663L58.9491 33.1815H58.5376V34.2021Z" fill="white"/>
<path d="M58.4961 32.8688V32.1612H59.2614C59.5906 32.4328 59.6812 32.5562 59.2614 32.8688H58.4961Z" fill="black"/>
<path d="M40.0372 19.1912C40.7451 19.1912 41.3786 18.8621 41.79 18.3436H43.2467C42.7035 19.5781 41.4692 20.4668 40.0372 20.4668C38.1032 20.4668 36.5396 18.895 36.5396 16.9775C36.5396 15.0435 38.1032 13.4799 40.0372 13.4799C41.4445 13.4799 42.687 14.3111 43.2221 15.5785H41.7735C41.3703 15.0682 40.7368 14.7473 40.0372 14.7473C38.8029 14.7473 37.807 15.7431 37.807 16.9775C37.807 18.1955 38.8029 19.1912 40.0372 19.1912Z" fill="white"/>
<path d="M5.57184 13.48H4V20.1789H5.32494V15.2741L7.05327 20.1789H8.03241L9.76074 15.2082V20.1789H11.0526V13.48H9.39038L7.58816 18.5083L5.57184 13.48Z" fill="white"/>
<path fill-rule="evenodd" clip-rule="evenodd" d="M17.6693 18.0536V20.1789H16.5665V19.8137C16.1307 20.1211 15.5996 20.3024 15.0277 20.3024C13.5462 20.3024 12.353 19.1007 12.353 17.6359C12.353 16.1545 13.5462 14.9613 15.0277 14.9613C15.5996 14.9613 16.1307 15.1412 16.5665 15.4481V15.0519H17.6693V17.2139C17.6909 17.3513 17.7023 17.4922 17.7023 17.6359C17.7023 17.7779 17.6909 17.9174 17.6693 18.0536ZM16.5665 17.6359C16.5665 16.7882 15.8753 16.0969 15.0277 16.0969C14.18 16.0969 13.4886 16.7882 13.4886 17.6359C13.4886 18.4753 14.18 19.1666 15.0277 19.1666C15.8753 19.1666 16.5665 18.4753 16.5665 17.6359Z" fill="white"/>
<path d="M25.0432 15.0519V13.5706H23.8828V15.0519H23.2162V16.2781H23.8828V20.1789H25.0432V16.2781H25.8002V15.0519H25.0432Z" fill="white"/>
<path fill-rule="evenodd" clip-rule="evenodd" d="M49.4106 17.2672V15.0519H48.308V15.4514C47.8718 15.1425 47.3383 14.9613 46.761 14.9613C45.2878 14.9614 44.0863 16.1547 44.0863 17.636C44.0863 19.1008 45.288 20.3024 46.761 20.3024C47.3383 20.3024 47.8718 20.1199 48.308 19.8104V20.1789H49.4106V18.0009C49.4271 17.8815 49.4356 17.7596 49.4356 17.6359C49.4356 17.5107 49.4271 17.3876 49.4106 17.2672ZM48.2998 17.6359C48.2998 16.7882 47.6086 16.0969 46.761 16.0969C45.9133 16.0969 45.2219 16.7883 45.2219 17.636C45.2219 18.4754 45.9133 19.1666 46.761 19.1666C47.6086 19.1666 48.2998 18.4753 48.2998 17.6359Z" fill="white"/>
<path fill-rule="evenodd" clip-rule="evenodd" d="M59.3685 13.7681V17.27C59.3848 17.3896 59.3933 17.5117 59.3933 17.6359C59.3933 17.7586 59.3848 17.8796 59.3685 17.9981V20.1789H58.2657V19.8078C57.8284 20.1188 57.2941 20.3024 56.7186 20.3024C55.2455 20.3024 54.044 19.1007 54.044 17.6359C54.044 16.1545 55.2455 14.9613 56.7186 14.9613C57.2941 14.9613 57.8284 15.1435 58.2657 15.4539V13.7681H59.3685ZM56.7186 16.0969C57.5663 16.0969 58.2574 16.7882 58.2574 17.6359C58.2574 18.4753 57.5663 19.1666 56.7186 19.1666C55.871 19.1666 55.1796 18.4753 55.1796 17.6359C55.1796 16.7882 55.871 16.0969 56.7186 16.0969Z" fill="white"/>
<path d="M34.3918 15.0519H33.2479V20.1789H34.4081V16.7882C34.6798 16.2368 35.4944 16.1216 35.6261 16.1216V15.0188C35.3547 15.0188 34.4246 15.2246 34.3918 15.7266V15.0519Z" fill="white"/>
<path d="M50.7768 15.0519H51.929V15.7266C51.962 15.2246 52.8918 15.0188 53.1553 15.0188V16.1216C53.0318 16.1216 52.2089 16.2368 51.9455 16.7882V20.1789H50.7768V15.0519Z" fill="white"/>
<path d="M21.1257 16.5167H22.2531C22.2531 15.6197 21.6771 15.0683 20.7306 15.0683C19.7843 15.0683 19.0353 15.5621 19.0353 16.6649C19.0353 17.6796 20.0182 17.893 20.3223 17.9591L20.3569 17.9667L20.385 17.9734C20.4089 17.9802 20.437 17.9871 20.4685 17.9948C20.74 18.0612 21.2492 18.1858 21.2492 18.8128C21.2492 19.0761 20.9364 19.142 20.6647 19.142C20.4015 19.142 20.1298 18.9362 20.1298 18.6317H18.8708C18.8708 19.7839 19.7677 20.2447 20.6647 20.2447C21.5619 20.2447 22.4176 19.5204 22.4176 18.6481C22.4176 17.7923 21.5782 17.2902 20.9199 17.1914C19.9242 17.0515 20.0229 16.1874 20.5989 16.1874C21.0887 16.1875 21.1101 16.3815 21.1217 16.4861L21.1224 16.4908L21.123 16.4961L21.1237 16.5012L21.1248 16.5093L21.1257 16.5167Z" fill="white"/>
<path fill-rule="evenodd" clip-rule="evenodd" d="M31.9558 18.1625C31.9641 18.0886 31.9723 18.0062 31.9723 17.9321V17.7099C31.9313 16.5166 31.1823 15.0518 29.347 15.0353L29.314 15.0354C27.6517 15.0354 26.7465 16.418 26.7382 17.7676V17.817C26.763 19.0927 27.5776 20.3189 29.2977 20.3189L29.347 20.3188C30.384 20.3024 31.8406 19.6275 31.8406 18.7634H30.4498C30.4498 18.9693 29.9147 19.1584 29.347 19.1503C28.7215 19.1421 28.0714 18.8868 28.0714 18.1625H31.9558ZM29.347 16.278C29.9725 16.278 30.5898 16.566 30.5898 17.1338H28.1042C28.1042 16.566 28.7215 16.278 29.347 16.278Z" fill="white"/>
</svg>
