<svg width="67" height="20" viewBox="0 0 67 20" fill="none" xmlns="http://www.w3.org/2000/svg">
<path fill-rule="evenodd" clip-rule="evenodd" d="M60.1919 0.797852H47.5293C48.2101 5.01872 52.2948 8.96728 56.788 8.96728H66.8636C66.9998 8.55881 66.9998 8.01418 66.9998 7.60571C66.9998 3.79331 64.0043 0.797852 60.1919 0.797852Z" fill="url(#paint0_linear_1013_1476)"/>
<path d="M0.964844 0.797852V19.8598H7.09191V9.64806H7.7727L11.1766 19.8598H13.8998L17.3037 9.64806H17.9845V19.8598H24.1116V0.797852H17.9845C17.9845 0.797852 16.2134 0.797852 15.2613 3.52099C13.0834 9.92031 12.5382 11.6904 12.5382 11.6904C12.5382 11.6904 12.2669 10.7374 9.81506 3.52099C8.86302 0.797852 7.09191 0.797852 7.09191 0.797852H0.964844Z" fill="#4DB45F"/>
<path d="M26.8347 0.797852V19.8598H32.281C32.281 19.8598 33.6426 19.8598 34.3233 18.4983L39.0888 8.96728H39.7696V19.8598H45.8967V0.797852H40.4504C40.4504 0.797852 39.0888 0.933975 38.4081 2.15942L33.6426 11.6904H32.9618V0.797852H26.8347Z" fill="#4DB45F"/>
<path d="M48.6198 9.64806V19.8598H54.7469V14.4136H60.1932C63.1876 14.4136 65.7751 12.3712 66.5915 9.64806H48.6198Z" fill="#4DB45F"/>
<defs>
<linearGradient id="paint0_linear_1013_1476" x1="47.4942" y1="4.88257" x2="66.9998" y2="4.88257" gradientUnits="userSpaceOnUse">
<stop stop-color="#00B4E6"/>
<stop offset="1" stop-color="#088CCB"/>
</linearGradient>
</defs>
</svg>
