<svg width="111" height="30" viewBox="0 0 111 30" fill="none" xmlns="http://www.w3.org/2000/svg">
<g clip-path="url(#clip0_1013_1479)">
<path d="M42.3264 15.5739C42.6861 15.1812 43.0364 14.8056 43.3819 14.408C43.5429 14.2153 43.6589 14.3275 43.7985 14.408C44.6796 14.9351 45.6895 15.1892 46.7072 15.1398C48.177 15.0788 49.1142 13.9201 48.8822 12.3615C48.3162 12.9776 47.5563 13.3666 46.738 13.4591C44.7215 13.703 42.7855 12.7932 42.2672 10.2881C42.169 9.79542 42.1214 9.29342 42.1252 8.79044C42.1252 7.34398 42.1252 5.89751 42.1252 4.45349C42.1252 4.11688 42.2199 4.04126 42.5252 4.06077C42.9508 4.08761 43.3776 4.08761 43.8032 4.06077C44.1298 4.03882 44.2458 4.11444 44.2387 4.4852C44.215 5.94874 44.2387 7.42935 44.2387 8.90021C44.242 9.22274 44.2825 9.54373 44.3594 9.85638C44.4352 10.2657 44.6375 10.6388 44.9362 10.9198C45.2348 11.2007 45.6137 11.3745 46.0161 11.4151C47.5711 11.6712 48.7544 10.7467 48.8941 9.1173C49.0361 7.57326 48.9367 6.02192 48.9461 4.48276C48.9461 4.13395 49.0361 4.04858 49.358 4.06809C49.8313 4.0998 50.2881 4.08517 50.752 4.06809C50.9389 4.06809 51.0076 4.10956 51.0076 4.31202C51.0076 7.13908 51.088 9.96859 50.9721 12.7908C50.8561 15.613 48.8846 17.2594 46.151 17.1326C44.7392 17.0865 43.387 16.5354 42.3264 15.5739Z" fill="#CD2028"/>
<path d="M0 14.0591C1.77979 11.9614 3.52407 9.91246 5.27309 7.84155C5.74644 7.27809 5.74644 7.29273 5.26126 6.71219C3.51303 4.65185 1.76716 2.59314 0.0236674 0.536059C0.089936 0.411659 0.189339 0.450686 0.267441 0.450686C1.59755 0.450686 2.92765 0.462883 4.26013 0.450686C4.35062 0.446855 4.44071 0.465197 4.52299 0.504206C4.60528 0.543216 4.67741 0.601782 4.73348 0.675096C6.54009 2.8021 8.34906 4.93074 10.1604 7.061C10.3 7.22687 10.3166 7.32687 10.1604 7.5025C8.35222 9.63113 6.54719 11.7581 4.74531 13.8835C4.69937 13.9515 4.63812 14.007 4.56681 14.0452C4.4955 14.0835 4.41625 14.1033 4.33586 14.1031C2.94185 14.1031 1.55021 14.1031 0.156205 14.1031C0.102975 14.0932 0.0507009 14.0785 0 14.0591Z" fill="#CD2028"/>
<path d="M7.2793 14.0591L10.7986 9.91243C11.4826 9.1026 12.1619 8.29278 12.8553 7.49271C12.9926 7.33416 12.9973 7.24879 12.8553 7.09024C11.1197 5.0543 9.38412 3.01266 7.64851 0.965335C7.5278 0.823859 7.41183 0.677506 7.28403 0.521395C7.43278 0.454172 7.59771 0.434624 7.75738 0.465293C9.01175 0.465293 10.2661 0.465293 11.5229 0.465293C11.6212 0.46026 11.7193 0.479814 11.8087 0.522287C11.8981 0.564761 11.9763 0.628893 12.0364 0.709216C13.832 2.82647 15.6299 4.9429 17.4302 7.05853C17.5912 7.24635 17.5746 7.34148 17.4302 7.5171C15.622 9.63598 13.8225 11.7573 12.0317 13.8811C11.9863 13.9492 11.9255 14.0049 11.8546 14.0436C11.7837 14.0822 11.7048 14.1026 11.6246 14.103C10.2306 14.103 8.83661 14.103 7.44497 14.103C7.38868 14.0931 7.33327 14.0784 7.2793 14.0591Z" fill="#CD2028"/>
<path d="M63.3274 13.5225H60.5891C60.4542 13.5225 60.3998 13.4078 60.3311 13.32C58.8085 11.3687 57.2859 9.41727 55.7633 7.46589C55.7335 7.44001 55.7094 7.40772 55.693 7.37127C55.6765 7.33482 55.668 7.2951 55.668 7.25489C55.668 7.21468 55.6765 7.17496 55.693 7.13851C55.7094 7.10206 55.7335 7.06977 55.7633 7.0439C57.2733 5.11528 58.7785 3.1826 60.2791 1.24585C60.34 1.15533 60.4219 1.082 60.5174 1.03256C60.6129 0.983132 60.719 0.95918 60.8258 0.9629C61.6376 0.979975 62.4494 0.9629 63.344 0.9629C62.802 1.63857 62.3145 2.25081 61.8222 2.86062C60.7098 4.24122 59.5998 5.62427 58.4756 6.99268C58.3076 7.20001 58.3241 7.31221 58.4756 7.50491C60.0093 9.39613 61.5389 11.2914 63.0647 13.1908L63.3274 13.5225Z" fill="#F9A11C"/>
<path d="M105.059 8.81235C105.059 7.36832 105.059 5.92186 105.059 4.4754C105.059 4.1583 105.137 4.04121 105.457 4.05829C105.93 4.08512 106.385 4.07292 106.849 4.05829C107.057 4.05829 107.149 4.12659 107.137 4.34612C107.125 4.56565 107.137 4.76079 107.137 4.96568C107.137 5.0413 107.114 5.13399 107.187 5.18033C107.26 5.22668 107.32 5.14131 107.369 5.09252C108.271 4.23879 109.353 3.93389 110.555 3.96072C110.82 3.96072 110.903 4.05097 110.893 4.31929C110.876 4.79412 110.876 5.2714 110.893 5.75111C110.893 6.01211 110.803 6.08041 110.564 6.07553C110.164 6.05018 109.762 6.06406 109.364 6.117C108.06 6.36092 107.234 7.40491 107.204 8.84406C107.173 10.2832 107.18 11.7345 107.192 13.181C107.192 13.5054 107.102 13.6103 106.789 13.5908C106.376 13.5628 105.961 13.5628 105.547 13.5908C105.175 13.6176 105.05 13.5127 105.057 13.103C105.083 11.6711 105.059 10.2466 105.059 8.81235Z" fill="#F9A11C"/>
<path d="M55.292 7.28055C55.292 9.2173 55.292 11.154 55.292 13.0908C55.292 13.403 55.2281 13.5323 54.9015 13.5128C54.4116 13.486 53.9217 13.4981 53.4318 13.5128C53.1951 13.5128 53.0957 13.4664 53.0957 13.1932C53.0957 9.2173 53.0957 5.23973 53.0957 1.26053C53.0957 1.01661 53.1951 0.95807 53.4105 0.962948C53.9122 0.975144 54.414 0.984901 54.9157 0.962948C55.221 0.948313 55.2944 1.05808 55.292 1.3581C55.2873 3.33388 55.292 5.30966 55.292 7.28055Z" fill="#F9A11C"/>
<path d="M29.8761 4.67054C29.6722 3.61722 29.1161 2.67106 28.3047 1.99705C27.4933 1.32305 26.4781 0.963967 25.4361 0.982428C24.0823 0.982428 22.7261 0.982428 21.3724 0.982428C21.0647 0.982428 20.9677 1.05317 20.9724 1.38246C20.9866 3.34604 20.9724 5.30718 20.9724 7.27076V13.1469C20.9736 13.1598 20.9736 13.1729 20.9724 13.1859C20.9298 13.4518 21.0292 13.5396 21.2966 13.5298C21.8236 13.5087 22.3506 13.5087 22.8776 13.5298C23.1309 13.5298 23.1924 13.4542 23.19 13.2054C23.1758 12.3151 23.19 11.4223 23.1735 10.5223C23.1735 10.1369 23.2397 10.0076 23.6468 10.0125C24.5462 10.0125 25.4526 10.0978 26.3496 9.94904C28.6785 9.56852 30.366 7.0366 29.8761 4.67054ZM25.5615 7.78056C24.8515 7.79764 24.158 7.78056 23.4551 7.78056C23.2326 7.78056 23.1853 7.70251 23.1877 7.49029C23.1995 6.82194 23.1877 6.14872 23.1877 5.48037C23.1877 4.81202 23.1877 4.16318 23.1877 3.50459C23.1877 3.34848 23.1877 3.2314 23.4007 3.23628C24.177 3.23628 24.958 3.20457 25.7295 3.26555C26.9697 3.36068 27.7862 4.36564 27.7365 5.64623C27.7014 6.21891 27.4579 6.75684 27.0547 7.15252C26.6515 7.5482 26.1182 7.77249 25.5615 7.78056Z" fill="#CD2028"/>
<path d="M93.0974 7.76835C92.9174 6.75502 92.4165 5.83181 91.673 5.14326C90.9295 4.4547 89.9855 4.03967 88.9887 3.96315C87.9985 3.88172 87.0086 4.12341 86.1591 4.654C85.3095 5.18458 84.6435 5.97716 84.2553 6.9195C83.8813 7.83177 83.905 8.78063 83.9073 9.73437C83.9073 12.0199 83.9073 14.303 83.9073 16.5886C83.9073 16.913 84.0044 17.0179 84.3144 17.0008C84.7156 16.9764 85.1179 16.9764 85.5191 17.0008C85.8623 17.0228 85.9711 16.9081 85.9664 16.5471C85.9451 15.2324 85.9664 13.9152 85.9664 12.5444C86.0179 12.5689 86.067 12.5983 86.1131 12.6322C87.3273 13.9128 89.2372 13.9518 90.6549 13.242C92.5388 12.2834 93.54 10.071 93.0974 7.76835ZM88.4444 11.6272C86.9415 11.6272 85.9214 10.4881 85.9285 8.79283C85.9356 7.09756 86.9439 6.00479 88.4515 6.00723C88.8096 6.00146 89.1652 6.07056 89.4967 6.21036C89.8282 6.35016 90.1288 6.55775 90.3803 6.8206C90.6318 7.08345 90.829 7.39611 90.96 7.7397C91.091 8.08328 91.1531 8.45066 91.1425 8.81966C91.1508 9.18843 91.0869 9.55513 90.9545 9.89786C90.8222 10.2406 90.6242 10.5523 90.3723 10.8144C90.1205 11.0765 89.8199 11.2835 89.4887 11.4232C89.1574 11.5628 88.8023 11.6322 88.4444 11.6272Z" fill="#F9A11C"/>
<path d="M40.1159 8.27815C40.1159 6.97561 40.1159 5.67306 40.1159 4.37539C40.1159 4.14854 40.071 4.06073 39.8296 4.07048C39.316 4.09 38.8024 4.08512 38.2865 4.07048C38.0877 4.07048 38.0285 4.1339 38.0379 4.33392C38.0545 4.61199 38.0379 4.8925 38.0379 5.25107C37.2161 4.42807 36.1141 3.96972 34.9682 3.97428C33.8223 3.97884 32.7238 4.44595 31.9081 5.27546C30.6395 6.58533 30.2632 8.20254 30.5946 9.96854C30.7109 10.5908 30.9492 11.182 31.2949 11.706C31.6406 12.2299 32.0864 12.6757 32.6051 13.016C33.1238 13.3562 33.7044 13.5837 34.3114 13.6847C34.9183 13.7856 35.5389 13.7578 36.1351 13.603C36.8499 13.4056 37.5024 13.0197 38.0285 12.4834C38.0285 12.8127 38.0427 13.0688 38.0285 13.3225C38.0143 13.5762 38.0687 13.642 38.3125 13.6298C38.8 13.6103 39.2923 13.6079 39.7799 13.6298C40.052 13.6445 40.1112 13.542 40.1088 13.281C40.1088 11.6077 40.1159 9.94415 40.1159 8.27815ZM35.2215 11.6711C34.8669 11.6696 34.5161 11.5953 34.1897 11.4525C33.8632 11.3097 33.5677 11.1013 33.3202 10.8395C33.0728 10.5776 32.8785 10.2676 32.7486 9.92753C32.6187 9.58745 32.5558 9.22409 32.5637 8.85869C32.553 8.49063 32.6142 8.12412 32.7435 7.78087C32.8728 7.43761 33.0677 7.12461 33.3165 6.86039C33.5654 6.59617 33.8632 6.38612 34.1922 6.24268C34.5213 6.09924 34.8749 6.02533 35.2322 6.02533C35.5895 6.02533 35.9431 6.09924 36.2722 6.24268C36.6012 6.38612 36.899 6.59617 37.1478 6.86039C37.3967 7.12461 37.5915 7.43761 37.7208 7.78087C37.8502 8.12412 37.9113 8.49063 37.9007 8.85869C37.9116 9.22674 37.8501 9.59325 37.7199 9.93616C37.5898 10.2791 37.3936 10.5913 37.1433 10.8541C36.893 11.1168 36.5938 11.3246 36.2635 11.4651C35.9332 11.6055 35.5788 11.6756 35.2215 11.6711Z" fill="#CD2028"/>
<path d="M103.234 6.60973C101.93 3.40215 97.9087 3.25823 95.9443 5.134C94.7254 6.29751 94.3183 7.78056 94.4817 9.4246C94.645 11.0686 95.4283 12.3809 96.9147 13.1396C98.9382 14.1811 101.345 13.6811 103.142 12.2712C103.291 12.1541 103.246 12.0736 103.142 11.9638C102.905 11.7028 102.652 11.4443 102.432 11.1638C102.404 11.1116 102.366 11.0664 102.32 11.0314C102.273 10.9964 102.22 10.9725 102.163 10.9616C102.107 10.9506 102.049 10.9527 101.993 10.9679C101.938 10.983 101.886 11.0108 101.842 11.0491C101.016 11.5232 100.082 11.7592 99.137 11.7321C97.7904 11.7053 96.8602 10.976 96.607 9.79781C96.5407 9.48802 96.6283 9.41485 96.9147 9.41973C97.9442 9.41973 98.9737 9.41973 99.9914 9.41973C101.009 9.41973 102.027 9.41973 103.042 9.41973C103.314 9.41973 103.426 9.32459 103.466 9.06604C103.617 8.24119 103.536 7.38913 103.234 6.60973ZM101.153 7.76837C100.465 7.75373 99.7761 7.76837 99.0873 7.76837C98.3986 7.76837 97.7454 7.76837 97.0614 7.76837C96.7679 7.76837 96.6756 7.70739 96.7963 7.3976C96.998 6.93709 97.3254 6.54703 97.7385 6.27502C98.1516 6.00301 98.6326 5.86081 99.1228 5.86577C99.6079 5.85364 100.085 5.99456 100.49 6.26963C100.895 6.54471 101.209 6.94082 101.39 7.40492C101.49 7.68299 101.452 7.783 101.153 7.76837Z" fill="#F9A11C"/>
<path d="M72.0397 7.05367C71.0054 3.5046 66.795 3.15091 64.7028 5.05595C63.5005 6.13896 63.0461 7.54396 63.136 9.14897C63.2496 11.0833 64.1253 12.5395 65.8862 13.2737C68.0162 14.1616 69.9877 13.6176 71.803 12.2785C71.945 12.1736 71.9379 12.0931 71.8243 11.9736C71.564 11.6955 71.2942 11.4223 71.0575 11.1247C71.035 11.0803 71.003 11.0417 70.964 11.0118C70.9251 10.9818 70.88 10.9612 70.8323 10.9516C70.7846 10.942 70.7354 10.9436 70.6883 10.9563C70.6413 10.9689 70.5976 10.9923 70.5605 11.0247C69.7027 11.5208 68.7295 11.7654 67.7464 11.7321C66.466 11.6955 65.5572 10.9833 65.2921 9.85391C65.2188 9.53925 65.2566 9.40997 65.6093 9.41729C66.627 9.4368 67.6423 9.41729 68.6576 9.41729C69.673 9.41729 70.641 9.39777 71.6326 9.41729C71.9876 9.41729 72.1438 9.29289 72.1651 8.95383C72.2353 8.31784 72.1928 7.67401 72.0397 7.05367ZM69.7866 7.78544C69.112 7.76105 68.4352 7.78544 67.7606 7.78544C67.0861 7.78544 66.3832 7.78544 65.6945 7.78544C65.4105 7.78544 65.3395 7.70739 65.4578 7.422C65.6587 6.95207 65.9915 6.55485 66.4133 6.28142C66.835 6.008 67.3265 5.87089 67.8245 5.88772C68.2967 5.88225 68.7598 6.02114 69.1553 6.28684C69.5509 6.55255 69.8612 6.93315 70.0469 7.38053C70.1463 7.65129 70.151 7.79276 69.7866 7.78056V7.78544Z" fill="#F9A11C"/>
<path d="M82.2115 6.81464C81.5867 5.16816 80.4294 4.20954 78.7159 3.98025C77.2154 3.78267 75.8758 4.14124 74.761 5.2267C73.6463 6.31216 73.3244 7.62934 73.3623 9.12947C73.3793 10.0674 73.6746 10.9775 74.2086 11.7372C74.7426 12.4969 75.4897 13.0697 76.3491 13.3786C78.4271 14.0982 80.2945 13.5713 82.0293 12.298C82.1902 12.1785 82.1713 12.0956 82.0482 11.9663C81.795 11.7004 81.5323 11.437 81.3051 11.1467C81.2816 11.0994 81.2479 11.0582 81.2066 11.0263C81.1652 10.9945 81.1174 10.9728 81.0667 10.9629C81.016 10.953 80.9638 10.9552 80.914 10.9693C80.8643 10.9834 80.8183 11.009 80.7797 11.0443C79.932 11.5323 78.9716 11.7734 78.0011 11.7419C76.7041 11.7102 75.7858 10.9882 75.5255 9.84172C75.4569 9.53682 75.5042 9.42217 75.8332 9.42705C76.8485 9.44413 77.8662 9.42705 78.8815 9.42705C79.8969 9.42705 80.8909 9.40754 81.8944 9.42705C82.2352 9.42705 82.3677 9.30509 82.4009 8.98555C82.4529 8.25622 82.479 7.52445 82.2115 6.81464ZM80.027 7.79033C79.3525 7.76838 78.6756 7.79033 78.0011 7.79033C77.3266 7.79033 76.6237 7.79033 75.9349 7.79033C75.6367 7.79033 75.5918 7.6952 75.6983 7.42444C75.8987 6.96264 76.2257 6.57122 76.639 6.29823C77.0523 6.02524 77.5339 5.88257 78.0248 5.88773C78.5031 5.87852 78.9732 6.01658 79.375 6.28424C79.7768 6.5519 80.092 6.93701 80.2803 7.3903C80.401 7.66837 80.3749 7.79033 80.027 7.78057V7.79033Z" fill="#F9A11C"/>
<path d="M53.552 25.3162C54.0012 25.6065 54.5177 25.7674 55.0478 25.7821C55.8738 25.7821 56.2596 25.3552 56.2596 24.8235C56.2596 24.2917 55.9377 23.96 55.0998 23.6404C53.978 23.2282 53.4431 22.5916 53.4431 21.8208C53.4431 20.7841 54.2573 19.9328 55.5969 19.9328C56.1339 19.9267 56.6632 20.0645 57.1329 20.3328L56.8536 21.1841C56.469 20.9413 56.0266 20.813 55.5756 20.8134C54.9058 20.8134 54.5318 21.211 54.5318 21.6891C54.5318 22.2208 54.9058 22.4599 55.7152 22.7794C56.7992 23.2063 57.353 23.7551 57.353 24.7308C57.353 25.8601 56.5033 26.6578 55.0194 26.6578C54.4079 26.6696 53.8038 26.5183 53.2656 26.2187L53.552 25.3162Z" fill="#F9A11C"/>
<path d="M59.4446 23.5087C59.4706 25.0893 60.4504 25.7406 61.5865 25.7406C62.1788 25.7594 62.7682 25.6463 63.3142 25.4089L63.5059 26.2455C62.8494 26.5292 62.1419 26.6655 61.4303 26.6456C59.5085 26.6456 58.3535 25.343 58.3535 23.4014C58.3535 21.4598 59.4706 19.9328 61.2977 19.9328C63.3355 19.9328 63.8775 21.7817 63.8775 22.9648C63.8752 23.1467 63.8625 23.3283 63.8396 23.5087H59.4446ZM62.7722 22.6721C62.7722 21.9403 62.474 20.7695 61.1983 20.7695C60.0505 20.7695 59.5416 21.8598 59.4564 22.6721H62.7722Z" fill="#F9A11C"/>
<path d="M69.7214 26.2724C69.1585 26.5325 68.5465 26.66 67.9298 26.6456C66.0364 26.6456 64.8223 25.3284 64.8223 23.3624C64.8223 21.3964 66.1382 19.9475 68.1759 19.9475C68.7168 19.9402 69.2529 20.0534 69.7474 20.2792L69.4895 21.1842C69.0846 20.9671 68.632 20.862 68.1759 20.8793C66.7441 20.8793 65.9701 21.9696 65.9701 23.3185C65.9701 24.8064 66.8979 25.7236 68.1357 25.7236C68.6175 25.7262 69.0938 25.6179 69.5297 25.4065L69.7214 26.2724Z" fill="#F9A11C"/>
<path d="M76.273 24.7576C76.273 25.4235 76.2872 26.0065 76.325 26.5114H75.3192L75.2553 25.4625H75.2292C75.0188 25.8323 74.7168 26.1378 74.3542 26.3479C73.9916 26.5579 73.5813 26.6648 73.1655 26.6578C72.1856 26.6578 71.0117 26.0992 71.0117 23.8405V20.0792H72.1478V23.6404C72.1478 24.8601 72.5075 25.6894 73.5394 25.6894C73.861 25.6819 74.1734 25.5771 74.4377 25.388C74.702 25.1989 74.9065 24.9339 75.0257 24.6259C75.0946 24.4338 75.1299 24.2306 75.1298 24.0258V20.0792H76.2635L76.273 24.7576Z" fill="#F9A11C"/>
<path d="M78.1552 22.0866C78.1552 21.328 78.1433 20.6768 78.1055 20.0791H79.0971L79.1374 21.3427H79.1871C79.4711 20.4792 80.1551 19.9328 80.9172 19.9328C81.0258 19.9318 81.134 19.9457 81.239 19.9743V21.0768C81.1116 21.0475 80.9814 21.0336 80.8509 21.0353C80.0509 21.0353 79.4853 21.6622 79.3291 22.5379C79.2978 22.7183 79.2812 22.901 79.2794 23.0843V26.4992H78.1552V22.0866Z" fill="#F9A11C"/>
<path d="M82.8759 23.5087C82.902 25.0893 83.8818 25.7406 85.006 25.7406C85.5984 25.7597 86.1878 25.6466 86.7337 25.4089L86.9278 26.2455C86.2712 26.5289 85.5637 26.6652 84.8521 26.6456C82.9304 26.6456 81.7754 25.343 81.7754 23.4014C81.7754 21.4598 82.902 19.9328 84.7291 19.9328C86.7668 19.9328 87.3088 21.7817 87.3088 22.9648C87.3072 23.1468 87.2938 23.3285 87.2686 23.5087H82.8759ZM86.2012 22.6721C86.2154 21.9403 85.9053 20.7695 84.6297 20.7695C83.4818 20.7695 82.973 21.8598 82.8878 22.6721H86.2012Z" fill="#F9A11C"/>
<path d="M94.0951 17.0765V24.843C94.0951 25.4162 94.107 26.0626 94.1472 26.5041H93.1271L93.0751 25.3894H93.0514C92.8472 25.7846 92.539 26.1125 92.1623 26.3355C91.7856 26.5586 91.3555 26.6677 90.9213 26.6505C89.4137 26.6505 88.254 25.3357 88.254 23.3819C88.2398 21.2427 89.5297 19.9255 91.0515 19.9255C91.9982 19.9255 92.6514 20.3914 92.9449 20.9012H92.9686V17.0765H94.0951ZM92.9591 22.6867C92.9609 22.5227 92.9443 22.3589 92.9094 22.1989C92.8282 21.8138 92.6212 21.4691 92.3232 21.2223C92.0251 20.9755 91.654 20.8415 91.2716 20.8426C90.0882 20.8426 89.3995 21.9062 89.3995 23.3282C89.3995 24.6308 90.0196 25.7065 91.2456 25.7065C91.6347 25.7034 92.0111 25.5634 92.3124 25.3097C92.6138 25.0559 92.8219 24.7036 92.9023 24.3112C92.939 24.1457 92.9557 23.9761 92.952 23.8063L92.9591 22.6867Z" fill="#F9A11C"/>
<path d="M98.6582 26.5114C98.6842 26.0748 98.7103 25.4235 98.7103 24.8503V17.0765H99.8321V21.1158H99.8581C100.074 20.7363 100.387 20.4251 100.762 20.2165C101.138 20.0078 101.562 19.9097 101.988 19.9328C103.536 19.9328 104.632 21.2622 104.62 23.216C104.62 25.5162 103.214 26.6578 101.82 26.6578C101.395 26.6817 100.973 26.5795 100.603 26.3633C100.233 26.1471 99.9309 25.826 99.7327 25.4382H99.6925L99.6428 26.4992L98.6582 26.5114ZM99.8416 23.9331C99.8402 24.0747 99.8521 24.216 99.8771 24.3551C99.9721 24.7461 100.191 25.0932 100.499 25.3411C100.808 25.589 101.188 25.7237 101.579 25.7235C102.762 25.7235 103.472 24.7259 103.472 23.2502C103.472 21.9623 102.828 20.8597 101.617 20.8597C101.215 20.8673 100.827 21.0123 100.514 21.272C100.2 21.5316 99.9799 21.8911 99.8865 22.294C99.8496 22.454 99.8282 22.6174 99.8226 22.7818L99.8416 23.9331Z" fill="#F9A11C"/>
<path d="M106.37 20.0792L107.736 23.8795C107.878 24.3063 108.032 24.8113 108.136 25.1967H108.16C108.276 24.8113 108.396 24.3185 108.56 23.8551L109.797 20.0792H111L109.298 24.6649C108.484 26.8602 107.93 28.0018 107.156 28.6921C106.763 29.0654 106.283 29.3269 105.762 29.4507L105.48 28.475C105.843 28.3513 106.18 28.1576 106.472 27.9042C106.882 27.5518 107.206 27.1058 107.419 26.6017C107.465 26.5153 107.496 26.4211 107.511 26.3236C107.501 26.2175 107.475 26.1138 107.433 26.0162L105.123 20.0889L106.37 20.0792Z" fill="#F9A11C"/>
</g>
<defs>
<clipPath id="clip0_1013_1479">
<rect width="111" height="29" fill="white" transform="translate(0 0.450684)"/>
</clipPath>
</defs>
</svg>
