<svg width="66" height="68" viewBox="0 0 66 68" fill="none" xmlns="http://www.w3.org/2000/svg">
<path d="M0 33.66C0 52.0977 14.7746 67.0444 33 67.0444C51.2254 67.0444 66 52.0977 66 33.66C66 15.2223 51.2254 0.275635 33 0.275635C14.7746 0.275635 0 15.2223 0 33.66ZM29.1328 12.0123C29.1328 9.85161 30.8642 8.1001 33 8.1001C35.1358 8.1001 36.8672 9.85161 36.8672 12.0123V31.4012L46.7671 37.1835C48.6167 38.2638 49.2504 40.6565 48.1826 42.5278C47.1147 44.399 44.7495 45.0401 42.8999 43.9598L31.0664 37.0482C29.827 36.3241 29.1345 35.0108 29.1333 33.66H29.1328V12.0123Z" fill="#C8C8C8"/>
</svg>
