<svg width="62" height="20" viewBox="0 0 62 20" fill="none" xmlns="http://www.w3.org/2000/svg">
<path d="M0.0351562 0.685262C0.855699 0.262805 1.79404 0.433413 2.67552 0.417164C4.69437 0.469971 6.7173 0.368419 8.73616 0.457785C9.64606 0.453723 10.426 1.20927 10.5519 2.09075C11.1856 5.16169 11.7665 8.24482 12.388 11.3239C11.3603 7.71674 8.64679 4.77173 5.45805 2.8991C3.77228 1.88764 1.89153 1.29864 0.0351562 0.685262Z" fill="#F4A929"/>
<path d="M17.5986 0.425293C19.3494 0.445603 21.0961 0.437479 22.8428 0.425293C20.1862 6.77434 17.7083 13.1965 14.9948 19.5212C13.2887 19.4684 11.5827 19.4928 9.87659 19.4928C8.36549 13.9724 6.95594 8.42355 5.45703 2.89911C8.64577 4.77173 11.3592 7.71675 12.387 11.3239C12.5413 12.0226 12.651 12.7375 12.785 13.4443C14.3774 9.10192 15.99 4.76361 17.5986 0.425293Z" fill="#1B4DA2"/>
<path d="M24.8062 0.417114C26.4513 0.429301 28.0965 0.429301 29.7416 0.417114C28.7302 6.77835 27.6659 13.1315 26.6788 19.4968C25.0418 19.5008 23.4048 19.5008 21.7637 19.4968C22.7061 13.1274 23.815 6.78241 24.8062 0.417114Z" fill="#1B4DA2"/>
<path d="M34.4223 1.61546C37.3714 -0.322154 41.2263 -0.265284 44.4882 0.807108C44.3379 2.21665 44.1023 3.61401 43.8586 5.00731C42.1241 4.17458 40.1011 3.80493 38.2163 4.28832C37.3267 4.49955 36.4493 5.60444 37.1886 6.4331C38.7078 7.98888 41.1004 8.34229 42.5303 10.0362C44.1876 11.657 44.1267 14.3867 42.9974 16.2837C41.8032 18.2863 39.504 19.3343 37.2658 19.6349C34.7351 19.8989 32.0988 19.7405 29.7266 18.7615C29.9784 17.3398 30.1896 15.91 30.4456 14.4882C32.4969 15.5484 34.8773 16.0806 37.1643 15.5728C37.9401 15.3128 38.7403 14.6751 38.6713 13.7652C38.4154 12.6806 37.2821 12.2175 36.4006 11.726C34.6904 10.8852 32.8503 9.85338 32.0826 8.00513C31.128 5.66943 32.3913 2.93564 34.4223 1.61546Z" fill="#1B4DA2"/>
<path fill-rule="evenodd" clip-rule="evenodd" d="M52.6056 0.48621C51.5779 0.539017 50.928 1.49361 50.599 2.37102C49.2991 5.49953 47.9908 8.62439 46.6826 11.7489C45.5991 14.3366 44.5158 16.924 43.4375 19.513C45.1598 19.509 46.8822 19.509 48.6045 19.509C48.966 18.5544 49.3153 17.5917 49.6525 16.629C51.3357 16.6387 53.019 16.6381 54.7043 16.6374C55.1257 16.6372 55.5473 16.6371 55.9691 16.6371C56.164 17.5998 56.3671 18.5585 56.5824 19.513C57.3419 19.511 58.1014 19.51 58.8609 19.509C59.6206 19.508 60.3804 19.507 61.1401 19.5049C60.6652 17.2404 60.1933 14.9753 59.7215 12.7101C58.8696 8.62031 58.0176 4.53008 57.1471 0.441527C56.578 0.452235 56.0079 0.446238 55.4374 0.440239C54.493 0.430306 53.5477 0.420366 52.6056 0.48621ZM52.0771 10.0207C51.7552 10.9187 51.4333 11.8167 51.0878 12.705C52.4526 12.709 53.8134 12.709 55.1783 12.709C55.0482 12.0831 54.9106 11.4583 54.7731 10.8334C54.3911 9.09816 54.009 7.36244 53.785 5.60037C53.1441 7.04435 52.6106 8.53256 52.0771 10.0207Z" fill="#1B4DA2"/>
</svg>
